M48
; DRILL file KiCad 10.0.5 date 2026-08-27T21:15:35
; FORMAT={-:-/ absolute / metric / decimal}
; #@! TF.CreationDate,2026-08-27T21:15:35-05:00
; #@! TF.GenerationSoftware,Kicad,Pcbnew,10.0.5
; #@! TF.FileFunction,Plated,1,2,PTH
FMAT,2
METRIC
; #@! TA.AperFunction,Plated,PTH,ViaDrill
T1C0.300
; #@! TA.AperFunction,Plated,PTH,ComponentDrill
T2C1.000
%
G90
G05
T1
X97.631Y-72.79
X97.631Y-126.275
X109.337Y-114.887
X114.62Y-113.94
X117.16Y-116.135
X124.003Y-126.769
X124.52Y-50.286
X125.698Y-128.78
X126.413Y-97.287
X127.142Y-96.367
X128.349Y-50.097
X129.6Y-50.303
X132.14Y-50.299
X133.454Y-50.123
X135.532Y-126.642
X135.617Y-50.295
X138.234Y-128.65
X139.76Y-50.3
X142.0Y-129.0
X142.02Y-50.303
X143.796Y-50.293
X147.38Y-50.308
X149.518Y-50.283
X153.0Y-50.292
X153.874Y-50.22
X157.54Y-50.296
X160.08Y-50.306
X162.62Y-50.285
X165.16Y-50.286
X166.0Y-87.0
X167.7Y-50.3
X169.838Y-50.295
X171.559Y-50.126
X172.264Y-66.306
X172.5Y-87.0
X174.84Y-114.05
X194.5Y-64.5
T2
X99.38Y-107.78
X101.92Y-107.78
X102.18Y-86.78
X104.46Y-107.78
X104.72Y-86.78
X107.0Y-107.78
X107.26Y-86.78
X109.54Y-107.78
X109.8Y-86.78
X112.08Y-107.78
X112.34Y-86.78
X114.62Y-107.78
X114.88Y-86.78
X117.16Y-107.78
X117.42Y-86.78
X119.7Y-107.78
X119.96Y-86.78
X122.24Y-107.78
X122.5Y-86.78
X132.68Y-63.3
X132.68Y-65.84
X132.68Y-68.38
X132.68Y-70.92
X132.68Y-73.46
X132.68Y-76.0
X132.68Y-78.54
X132.68Y-81.08
X132.68Y-83.62
X132.68Y-86.16
X132.68Y-88.7
X132.68Y-91.24
X132.68Y-93.78
X132.68Y-96.32
X132.68Y-98.86
X132.68Y-101.4
X132.68Y-103.94
X132.68Y-106.48
X137.76Y-60.76
X140.3Y-60.76
X145.38Y-60.76
X147.92Y-60.76
X153.0Y-63.3
X153.0Y-65.84
X153.0Y-68.38
X153.0Y-70.92
X153.0Y-73.46
X153.0Y-76.0
X153.0Y-78.54
X153.0Y-81.08
X153.0Y-83.62
X153.0Y-86.16
X153.0Y-88.7
X153.0Y-91.24
X153.0Y-93.78
X153.0Y-96.32
X153.0Y-98.86
X153.0Y-101.4
X153.0Y-103.94
X153.0Y-106.48
X165.196Y-96.15
X165.196Y-116.47
X167.22Y-84.28
X169.76Y-84.28
X170.276Y-96.15
X170.276Y-116.47
X172.264Y-84.262
X174.84Y-84.28
X177.38Y-84.28
X179.92Y-84.28
X182.46Y-84.28
X185.0Y-84.28
X185.196Y-96.15
X185.196Y-116.47
X190.276Y-96.15
X190.276Y-116.47
M30
