%TF.GenerationSoftware,KiCad,Pcbnew,10.0.5*%
%TF.CreationDate,2026-08-27T21:15:22-05:00*%
%TF.ProjectId,Data collection pcb,44617461-2063-46f6-9c6c-656374696f6e,rev?*%
%TF.SameCoordinates,Original*%
%TF.FileFunction,Copper,L2,Bot*%
%TF.FilePolarity,Positive*%
%FSLAX46Y46*%
G04 Gerber Fmt 4.6, Leading zero omitted, Abs format (unit mm)*
G04 Created by KiCad (PCBNEW 10.0.5) date 2026-08-27 21:15:22*
%MOMM*%
%LPD*%
G01*
G04 APERTURE LIST*
%TA.AperFunction,ComponentPad*%
%ADD10C,2.000000*%
%TD*%
%TA.AperFunction,ViaPad*%
%ADD11C,0.600000*%
%TD*%
%TA.AperFunction,ViaPad*%
%ADD12C,1.000000*%
%TD*%
%TA.AperFunction,ViaPad*%
%ADD13C,0.500000*%
%TD*%
%TA.AperFunction,Conductor*%
%ADD14C,0.200000*%
%TD*%
%TA.AperFunction,Conductor*%
%ADD15C,0.400000*%
%TD*%
%TA.AperFunction,Conductor*%
%ADD16C,1.000000*%
%TD*%
G04 APERTURE END LIST*
D10*
%TO.P,U6,1,-IN_1*%
%TO.N,/MOTGND*%
X185196500Y-116470100D03*
%TO.P,U6,2,+IN_2*%
%TO.N,/MOTPOS*%
X190276500Y-116470100D03*
%TO.P,U6,3,+OUT_3*%
%TO.N,/MOTV*%
X185196500Y-96150100D03*
%TO.P,U6,4,-OUT_4*%
%TO.N,GND*%
X190276500Y-96150100D03*
%TD*%
%TO.P,U1,1,GPIO7_1*%
%TO.N,/GP7*%
X132680000Y-63300000D03*
%TO.P,U1,2,GPIO6_2*%
%TO.N,/TEMP*%
X132680000Y-65840000D03*
%TO.P,U1,3,GPIO5_3*%
%TO.N,/GP5*%
X132680000Y-68380000D03*
%TO.P,U1,4,GPIO4_4*%
%TO.N,/WRPM*%
X132680000Y-70920000D03*
%TO.P,U1,5,GPIO3_5*%
%TO.N,/MRPM*%
X132680000Y-73460000D03*
%TO.P,U1,6,GPIO2_6*%
%TO.N,/GP2*%
X132680000Y-76000000D03*
%TO.P,U1,7,GPIO1_7*%
%TO.N,/GP1*%
X132680000Y-78540000D03*
%TO.P,U1,8,GPIO38_8*%
%TO.N,/GP38*%
X132680000Y-81080000D03*
%TO.P,U1,9,GPIO39_9*%
%TO.N,/GP39*%
X132680000Y-83620000D03*
%TO.P,U1,10,GPIO40_10*%
%TO.N,/GP40*%
X132680000Y-86160000D03*
%TO.P,U1,11,GPIO41_11*%
%TO.N,/GP41*%
X132680000Y-88700000D03*
%TO.P,U1,12,GPIO42_12*%
%TO.N,/GP42*%
X132680000Y-91240000D03*
%TO.P,U1,13,GPIO45_13*%
%TO.N,/GP45*%
X132680000Y-93780000D03*
%TO.P,U1,14,GPIO46_14*%
%TO.N,/GP46*%
X132680000Y-96320000D03*
%TO.P,U1,15,GPIO37_15*%
%TO.N,/GP37*%
X132680000Y-98860000D03*
%TO.P,U1,16,3V3_16*%
%TO.N,+3.3V*%
X132680000Y-101400000D03*
%TO.P,U1,17,3V3_17*%
X132680000Y-103940000D03*
%TO.P,U1,18,GND_18*%
%TO.N,GND*%
X132680000Y-106480000D03*
%TO.P,U1,19,GND_19*%
X153000000Y-106480000D03*
%TO.P,U1,20,5V_20*%
%TO.N,+5V*%
X153000000Y-103940000D03*
%TO.P,U1,21,VE_21*%
%TO.N,/VE*%
X153000000Y-101400000D03*
%TO.P,U1,22,VE_22*%
X153000000Y-98860000D03*
%TO.P,U1,23,GPIO44_23*%
%TO.N,/ESC_TX*%
X153000000Y-96320000D03*
%TO.P,U1,24,GPIO43_24*%
%TO.N,/ESC_RX*%
X153000000Y-93780000D03*
%TO.P,U1,25,RST_25*%
%TO.N,/RST*%
X153000000Y-91240000D03*
%TO.P,U1,26,GPIO0_26*%
%TO.N,/GP0*%
X153000000Y-88700000D03*
%TO.P,U1,27,GPIO36_27*%
%TO.N,/GP36*%
X153000000Y-86160000D03*
%TO.P,U1,28,GPIO35_28*%
%TO.N,/GP35*%
X153000000Y-83620000D03*
%TO.P,U1,29,GPIO34_29*%
%TO.N,/GPSTX*%
X153000000Y-81080000D03*
%TO.P,U1,30,GPIO33_30*%
%TO.N,/GPSRX*%
X153000000Y-78540000D03*
%TO.P,U1,31,GPIO47_31*%
%TO.N,/GP47*%
X153000000Y-76000000D03*
%TO.P,U1,32,GPIO48_32*%
%TO.N,/GP48*%
X153000000Y-73460000D03*
%TO.P,U1,33,GPIO26_33*%
%TO.N,/GP26*%
X153000000Y-70920000D03*
%TO.P,U1,34,GPIO21_34*%
%TO.N,/GP21*%
X153000000Y-68380000D03*
%TO.P,U1,35,GPIO20_35*%
%TO.N,/GP20*%
X153000000Y-65840000D03*
%TO.P,U1,36,GPIO19_36*%
%TO.N,/GP19*%
X153000000Y-63300000D03*
%TO.P,U1,37,GPIO18_37*%
%TO.N,/SCL*%
X147920000Y-60760000D03*
%TO.P,U1,38,GPIO17_38*%
%TO.N,/SDA*%
X145380000Y-60760000D03*
%TO.P,U1,39,GPIO16_39*%
%TO.N,/GP16*%
X140300000Y-60760000D03*
%TO.P,U1,40,GPIO15_40*%
%TO.N,/GP15*%
X137760000Y-60760000D03*
%TD*%
%TO.P,U2,1,A3_1*%
%TO.N,/CVREF*%
X99380000Y-107780000D03*
%TO.P,U2,2,A2_2*%
%TO.N,/CVOUT*%
X101920000Y-107780000D03*
%TO.P,U2,3,A1_3*%
%TO.N,/MOTV*%
X104460000Y-107780000D03*
%TO.P,U2,4,A0_4*%
%TO.N,/BATV*%
X107000000Y-107780000D03*
%TO.P,U2,5,ALERT_5*%
%TO.N,/ALERT*%
X109540000Y-107780000D03*
%TO.P,U2,6,ADDR_6*%
%TO.N,/ADDR*%
X112080000Y-107780000D03*
%TO.P,U2,7,SDA_7*%
%TO.N,/SDA*%
X114620000Y-107780000D03*
%TO.P,U2,8,SCL_8*%
%TO.N,/SCL*%
X117160000Y-107780000D03*
%TO.P,U2,9,GND_9*%
%TO.N,GND*%
X119700000Y-107780000D03*
%TO.P,U2,10,VCC_10*%
%TO.N,+5V*%
X122240000Y-107780000D03*
%TD*%
%TO.P,U3,1,VCC_1*%
%TO.N,+3.3V*%
X167220000Y-84280000D03*
%TO.P,U3,2,GND_2*%
%TO.N,GND*%
X169760000Y-84280000D03*
%TO.P,U3,3,SCL_3*%
%TO.N,/SCL*%
X172263962Y-84262453D03*
%TO.P,U3,4,SDA_4*%
%TO.N,/SDA*%
X174840000Y-84280000D03*
%TO.P,U3,5,XDA_5*%
%TO.N,/XDA*%
X177380000Y-84280000D03*
%TO.P,U3,6,XCL_6*%
%TO.N,/XCL*%
X179920000Y-84280000D03*
%TO.P,U3,7,AD0_7*%
%TO.N,/AD0*%
X182460000Y-84280000D03*
%TO.P,U3,8,INT_8*%
%TO.N,/INT*%
X185000000Y-84280000D03*
%TD*%
%TO.P,U4,1,3.3_1*%
%TO.N,+3.3V*%
X102180000Y-86780000D03*
%TO.P,U4,2,EN_2*%
%TO.N,/EN*%
X104720000Y-86780000D03*
%TO.P,U4,3,VBAT_3*%
%TO.N,/VBAT*%
X107260000Y-86780000D03*
%TO.P,U4,4,FIX_4*%
%TO.N,/FIX*%
X109800000Y-86780000D03*
%TO.P,U4,5,TX_5*%
%TO.N,/GPSTX*%
X112340000Y-86780000D03*
%TO.P,U4,6,RX_6*%
%TO.N,/GPSRX*%
X114880000Y-86780000D03*
%TO.P,U4,7,GND_7*%
%TO.N,GND*%
X117420000Y-86780000D03*
%TO.P,U4,8,VIN_8*%
%TO.N,/VIN*%
X119960000Y-86780000D03*
%TO.P,U4,9,PPS_9*%
%TO.N,/PPS*%
X122500000Y-86780000D03*
%TD*%
%TO.P,U5,1,-IN_1*%
%TO.N,/BATGND*%
X165196500Y-116470100D03*
%TO.P,U5,2,+IN_2*%
%TO.N,/BATPOS*%
X170276500Y-116470100D03*
%TO.P,U5,3,+OUT_3*%
%TO.N,/BATV*%
X165196500Y-96150100D03*
%TO.P,U5,4,-OUT_4*%
%TO.N,GND*%
X170276500Y-96150100D03*
%TD*%
D11*
%TO.N,/SDA*%
X114620000Y-113940000D03*
X174840000Y-114049600D03*
D12*
%TO.N,+5V*%
X194500000Y-64500000D03*
D13*
X142000000Y-129000000D03*
D11*
%TO.N,/CVREF*%
X109337200Y-114886900D03*
%TO.N,/TEMP*%
X97630800Y-126275500D03*
X97630800Y-72790200D03*
%TO.N,/GP5*%
X124520000Y-50286000D03*
%TO.N,/WRPM*%
X124002800Y-126768800D03*
%TO.N,/MRPM*%
X125697600Y-128780000D03*
%TO.N,/GP2*%
X128349300Y-50096900D03*
%TO.N,/GP1*%
X129600000Y-50303300D03*
%TO.N,/GP38*%
X132140000Y-50299000D03*
%TO.N,/GP39*%
X133454200Y-50123400D03*
%TO.N,/GP40*%
X135616500Y-50294900D03*
%TO.N,/GP41*%
X139760000Y-50300500D03*
%TO.N,/GP42*%
X142020300Y-50302800D03*
%TO.N,/GP45*%
X143795900Y-50293200D03*
%TO.N,/GP46*%
X147380000Y-50308000D03*
%TO.N,/GP37*%
X149518300Y-50283000D03*
D13*
%TO.N,+3.3V*%
X172500000Y-87000000D03*
X166000000Y-87000000D03*
D11*
%TO.N,/ESC_TX*%
X138234000Y-128650100D03*
%TO.N,/ESC_RX*%
X135532100Y-126642300D03*
%TO.N,/GP0*%
X171559200Y-50125800D03*
%TO.N,/GP36*%
X169838300Y-50294900D03*
%TO.N,/GP35*%
X167700000Y-50300000D03*
%TO.N,/GPSTX*%
X126412800Y-97286600D03*
%TO.N,/GPSRX*%
X127141700Y-96367000D03*
%TO.N,/GP47*%
X165160000Y-50285800D03*
%TO.N,/GP48*%
X162620000Y-50285300D03*
%TO.N,/GP26*%
X160080000Y-50305800D03*
%TO.N,/GP21*%
X157540000Y-50295700D03*
%TO.N,/GP20*%
X153874100Y-50220100D03*
%TO.N,/GP19*%
X153000000Y-50292400D03*
%TO.N,/SCL*%
X172264000Y-66306200D03*
X117160000Y-116135200D03*
%TD*%
%TO.N,/SDA*%
D14*
X174840000Y-84280000D02*
X174840000Y-114049600D01*
X114620000Y-107780000D02*
X114620000Y-113940000D01*
%TO.N,+5V*%
D15*
X137298314Y-131000000D02*
X124500000Y-131000000D01*
X124500000Y-131000000D02*
X122240000Y-128740000D01*
D16*
X194500000Y-95803814D02*
X194500000Y-64500000D01*
D15*
X142000000Y-114940000D02*
X142000000Y-129000000D01*
X153000000Y-103940000D02*
X142000000Y-114940000D01*
X122240000Y-128740000D02*
X122240000Y-107780000D01*
D16*
X153000000Y-103940000D02*
X163316186Y-103940000D01*
D15*
X153000000Y-103940000D02*
X139234000Y-117706000D01*
X139234000Y-129064314D02*
X137298314Y-131000000D01*
X139234000Y-117706000D02*
X139234000Y-129064314D01*
D16*
X175254214Y-115049600D02*
X194500000Y-95803814D01*
X163316186Y-103940000D02*
X174425786Y-115049600D01*
X174425786Y-115049600D02*
X175254214Y-115049600D01*
%TO.N,/CVREF*%
D14*
X99380000Y-107780000D02*
X106486900Y-114886900D01*
X106486900Y-114886900D02*
X109337200Y-114886900D01*
%TO.N,/TEMP*%
X97630800Y-72790200D02*
X97630800Y-126275500D01*
%TO.N,/GP5*%
X124520000Y-50286000D02*
X124520000Y-60220000D01*
X124520000Y-60220000D02*
X132680000Y-68380000D01*
%TO.N,/WRPM*%
X124002800Y-79597200D02*
X124002800Y-126768800D01*
X132680000Y-70920000D02*
X124002800Y-79597200D01*
%TO.N,/MRPM*%
X132680000Y-73460000D02*
X125697600Y-80442400D01*
X125697600Y-80442400D02*
X125697600Y-128780000D01*
%TO.N,/GP2*%
X128349300Y-50096900D02*
X134009700Y-55757300D01*
X134009700Y-74670300D02*
X132680000Y-76000000D01*
X134009700Y-55757300D02*
X134009700Y-74670300D01*
%TO.N,/GP1*%
X132680000Y-78540000D02*
X134411400Y-76808600D01*
X134411400Y-76808600D02*
X134411400Y-55114700D01*
X134411400Y-55114700D02*
X129600000Y-50303300D01*
%TO.N,/GP38*%
X134813100Y-52972100D02*
X132140000Y-50299000D01*
X134813100Y-78946900D02*
X134813100Y-52972100D01*
X132680000Y-81080000D02*
X134813100Y-78946900D01*
%TO.N,/GP39*%
X135214800Y-81085200D02*
X135214800Y-51884000D01*
X135214800Y-51884000D02*
X133454200Y-50123400D01*
X132680000Y-83620000D02*
X135214800Y-81085200D01*
%TO.N,/GP40*%
X135616500Y-83223500D02*
X135616500Y-50294900D01*
X132680000Y-86160000D02*
X135616500Y-83223500D01*
%TO.N,/GP41*%
X136018200Y-85361800D02*
X136018200Y-54042300D01*
X132680000Y-88700000D02*
X136018200Y-85361800D01*
X136018200Y-54042300D02*
X139760000Y-50300500D01*
%TO.N,/GP42*%
X136419900Y-55903200D02*
X142020300Y-50302800D01*
X132680000Y-91240000D02*
X136419900Y-87500100D01*
X136419900Y-87500100D02*
X136419900Y-55903200D01*
%TO.N,/GP45*%
X142164400Y-51924700D02*
X143795900Y-50293200D01*
X132680000Y-93780000D02*
X142164400Y-84295600D01*
X142164400Y-84295600D02*
X142164400Y-51924700D01*
%TO.N,/GP46*%
X142840100Y-54847900D02*
X147380000Y-50308000D01*
X132680000Y-96320000D02*
X142840100Y-86159900D01*
X142840100Y-86159900D02*
X142840100Y-54847900D01*
%TO.N,/GP37*%
X149518300Y-50283000D02*
X149518300Y-82021700D01*
X149518300Y-82021700D02*
X132680000Y-98860000D01*
%TO.N,+3.3V*%
D15*
X166000000Y-87000000D02*
X172500000Y-87000000D01*
%TO.N,/VE*%
D14*
X153000000Y-98860000D02*
X153000000Y-101400000D01*
%TO.N,/ESC_TX*%
X153000000Y-96320000D02*
X138234000Y-111086000D01*
X138234000Y-111086000D02*
X138234000Y-128650100D01*
%TO.N,/ESC_RX*%
X135532100Y-126642300D02*
X135532100Y-112237100D01*
X135532100Y-112237100D02*
X139054600Y-108714600D01*
X139054600Y-107725400D02*
X153000000Y-93780000D01*
X139054600Y-108714600D02*
X139054600Y-107725400D01*
%TO.N,/GP0*%
X171559200Y-69657700D02*
X153000000Y-88216900D01*
X153000000Y-88216900D02*
X153000000Y-88700000D01*
X171559200Y-50125800D02*
X171559200Y-69657700D01*
%TO.N,/GP36*%
X153000000Y-86160000D02*
X169838300Y-69321700D01*
X169838300Y-69321700D02*
X169838300Y-50294900D01*
%TO.N,/GP35*%
X167700000Y-68920000D02*
X153000000Y-83620000D01*
X167700000Y-50300000D02*
X167700000Y-68920000D01*
%TO.N,/GPSTX*%
X126412800Y-102629600D02*
X135154000Y-111370800D01*
X138652900Y-95427100D02*
X153000000Y-81080000D01*
X135437000Y-111370800D02*
X135578400Y-111229400D01*
X126412800Y-97286600D02*
X126412800Y-102629600D01*
X135154000Y-111370800D02*
X135437000Y-111370800D01*
X138652900Y-108548300D02*
X138652900Y-95427100D01*
X135971800Y-111229400D02*
X138652900Y-108548300D01*
X135578400Y-111229400D02*
X135971800Y-111229400D01*
%TO.N,/GPSRX*%
X135254200Y-110903000D02*
X127141700Y-102790500D01*
X135412100Y-110827700D02*
X135336800Y-110903000D01*
X153000000Y-78540000D02*
X153000000Y-79202200D01*
X138251200Y-108382000D02*
X135805500Y-110827700D01*
X153000000Y-79202200D02*
X138251200Y-93951000D01*
X138251200Y-93951000D02*
X138251200Y-108382000D01*
X127141700Y-102790500D02*
X127141700Y-96367000D01*
X135336800Y-110903000D02*
X135254200Y-110903000D01*
X135805500Y-110827700D02*
X135412100Y-110827700D01*
%TO.N,/GP47*%
X165160000Y-63840000D02*
X153000000Y-76000000D01*
X165160000Y-50285800D02*
X165160000Y-63840000D01*
%TO.N,/GP48*%
X162620000Y-63840000D02*
X153000000Y-73460000D01*
X162620000Y-50285300D02*
X162620000Y-63840000D01*
%TO.N,/GP26*%
X160080000Y-63840000D02*
X153000000Y-70920000D01*
X160080000Y-50305800D02*
X160080000Y-63840000D01*
%TO.N,/GP21*%
X157540000Y-50295700D02*
X157540000Y-63840000D01*
X157540000Y-63840000D02*
X153000000Y-68380000D01*
%TO.N,/GP20*%
X154344500Y-64495500D02*
X153000000Y-65840000D01*
X154344500Y-50690500D02*
X154344500Y-64495500D01*
X153874100Y-50220100D02*
X154344500Y-50690500D01*
%TO.N,/GP19*%
X153000000Y-63300000D02*
X153000000Y-50292400D01*
%TO.N,/SCL*%
X172264000Y-84262400D02*
X172264000Y-66306200D01*
X117160000Y-107780000D02*
X117160000Y-116135200D01*
%TD*%
M02*
